<?xml version="1.0" encoding="utf-8"?>
<!-- Generator: Adobe Illustrator 25.0.0, SVG Export Plug-In . SVG Version: 6.00 Build 0)  -->
<svg version="1.1" id="Layer_1" xmlns="http://www.w3.org/2000/svg" xmlns:xlink="http://www.w3.org/1999/xlink" x="0px" y="0px"
	 viewBox="0 0 856 145" style="enable-background:new 0 0 856 145;" xml:space="preserve">
<style type="text/css">
	.st0{fill:#231F20;}
</style>
<g>
	<polygon class="st0" points="42.69,53.26 40.31,53.26 40.31,52.83 48.01,52.83 48.01,53.26 45.46,53.26 45.46,61.89 55.34,61.89 
		55.34,53.26 52.79,53.26 52.79,52.83 60.49,52.83 60.49,53.26 58.1,53.26 58.1,71.49 60.49,71.49 60.49,71.93 52.79,71.93 
		52.79,71.49 55.34,71.49 55.34,62.32 45.46,62.32 45.46,71.49 48.01,71.49 48.01,71.93 40.31,71.93 40.31,71.49 42.69,71.49 	"/>
	<path class="st0" d="M74.65,53.26h-2.39v-0.43h14.46l0.33,4.61h-0.43c0-3.12-2.06-4.18-4.94-4.18h-4.26V62h2.03
		c2.82,0,3.09-1.71,3.09-3.47h0.43v7.22h-0.43c0-2.06-0.27-3.31-3.12-3.31h-2.01v9.06h3.72c4.39,0,6.51-0.52,6.51-5.13h0.43v5.56
		H72.26v-0.43h2.39V53.26z"/>
	<path class="st0" d="M106.9,61.89h1.36c3.2,0,5.07-1.11,5.07-4.26c0-2.17-0.73-4.37-4.59-4.37h-1.84V61.89z M104.14,53.26h-2.71
		v-0.43h8.33c3.12,0,6.51,0.71,6.51,4.8c0,3.31-3.83,4.18-5.81,4.42v0.05c3.12,0.27,4.77,0.95,5.18,4.53l0.38,3.31
		c0.19,1.6,0.95,1.71,1.41,1.71c0.49,0,0.84-0.16,1.11-0.27l0.16,0.35c-0.54,0.19-1.22,0.35-2.22,0.35c-3.31,0-3.5-1.76-3.88-4.88
		l-0.19-1.63c-0.19-1.71-0.68-3.26-3.74-3.26h-1.76v9.17h2.77v0.43h-8.25v-0.43h2.71V53.26z"/>
	<path class="st0" d="M135.29,57.09h-0.05l-2.66,8.22h5.51L135.29,57.09z M138.22,65.74h-5.81l-1.11,3.42
		c-0.19,0.54-0.41,1.19-0.41,1.66c0,0.38,0.33,0.68,1.19,0.68h1.41v0.43h-5.59v-0.43h0.87c0.84,0,1.19-0.08,1.71-1.6l5.83-17.5h0.3
		l6.59,19.1h2.25v0.43h-7.95v-0.43h2.66L138.22,65.74z"/>
	<path class="st0" d="M26.5,44.91c0.72,1.04,2.27,1.14,3.68,1.15v0h58.4h2.72h64.3v0c1.41-0.02,2.96-0.11,3.68-1.15
		c0.54-0.77,0.49-1.78-0.49-2.46c-0.75-0.52-1.6-0.37-2.14,0.41c-0.49,0.71-0.19,1.45,0.35,1.83c0.41,0.28,0.52,0.46,0.41,0.62
		c-0.11,0.16-0.95,0.35-2.1,0.38H91.3h-2.72H30.45c-1.15-0.04-1.99-0.23-2.1-0.38c-0.11-0.16,0-0.34,0.41-0.62
		c0.55-0.38,0.84-1.12,0.35-1.83c-0.54-0.77-1.38-0.93-2.14-0.41C26.01,43.13,25.96,44.13,26.5,44.91"/>
	<path class="st0" d="M159.28,79.93c-0.72-1.04-2.27-1.14-3.68-1.15H97.2h-2.72h-64.3c-1.41,0.02-2.96,0.11-3.68,1.15
		c-0.54,0.77-0.49,1.78,0.49,2.46c0.75,0.52,1.6,0.37,2.14-0.41c0.49-0.71,0.19-1.45-0.35-1.83c-0.41-0.28-0.52-0.46-0.41-0.62
		c0.11-0.16,0.95-0.35,2.1-0.38h64.02h2.72h58.12c1.15,0.04,1.99,0.23,2.1,0.38c0.11,0.16,0,0.34-0.41,0.62
		c-0.55,0.38-0.84,1.12-0.35,1.83c0.54,0.77,1.38,0.93,2.14,0.41C159.77,81.72,159.81,80.71,159.28,79.93"/>
	<path class="st0" d="M166.37,64.94c0,0.92-0.61,1.62-1.71,1.62c-1.06,0-1.98-0.75-2.41-1.69c0.84-0.56,1.9-1.26,2.73-1.26
		C165.82,63.61,166.37,64.14,166.37,64.94 M161.31,63.47c-0.22-0.38-0.48-0.81-0.78-1.23c0.3-0.42,0.57-0.85,0.78-1.23
		c0.69,0.43,1.64,1.09,2.5,1.23C162.94,62.38,162,63.04,161.31,63.47 M158.77,62.66c-0.42,0-0.93-0.16-1.41-0.42
		c0.48-0.26,0.99-0.42,1.41-0.42c0.61,0,1,0.16,1.32,0.42C159.78,62.51,159.38,62.66,158.77,62.66 M164.67,57.92
		c1.1,0,1.71,0.7,1.71,1.62c0,0.81-0.56,1.33-1.38,1.33c-0.83,0-1.89-0.7-2.73-1.26C162.69,58.67,163.61,57.92,164.67,57.92
		 M164.46,62.24c1.26-0.17,2.2-1.26,2.2-2.56c0-1.24-0.77-2.05-1.98-2.05c-1.28,0-2.03,0.77-2.66,1.81
		c-1.19-0.83-2.35-1.67-3.5-2.55c0.77-0.61,2.35-1.46,2.35-2.57c0-0.61-0.4-1.13-1.17-1.13c-0.59,0-0.99,0.4-0.99,1.01
		c0,0.56,0.43,0.84,0.86,0.84c0.32,0,0.45,0.05,0.45,0.18c0,0.16-0.81,0.93-1.76,1.51c-1.15-0.9-2.35-1.9-2.35-2.89
		c0-0.7,0.99-1.26,1.36-1.42l-0.09-0.23c-1.1,0.5-2.57,1.22-2.57,2.62c0,0.74,0.83,1.89,2.3,2.96l0.25,0.18
		c1.28,1.02,2.62,1.96,3.93,2.91c-0.28,0.44-0.5,0.83-0.77,1.13c-0.71-0.91-1.63-1.69-2.71-1.69c-0.62,0-1.22,0.21-1.71,0.57v0l0,0
		c-0.47,0.34-0.86,0.82-1.08,1.36l0,0l0,0c0.45,1.11,1.56,1.93,2.79,1.93c1.09,0,2-0.78,2.71-1.69c0.27,0.3,0.49,0.69,0.77,1.13
		c-1.31,0.95-2.66,1.89-3.93,2.91l-0.25,0.18c-1.47,1.08-2.3,2.23-2.3,2.96c0,1.4,1.47,2.12,2.57,2.62l0.09-0.23
		c-0.38-0.16-1.36-0.72-1.36-1.42c0-0.99,1.2-1.99,2.35-2.89c0.95,0.57,1.76,1.35,1.76,1.51c0,0.13-0.13,0.18-0.45,0.18
		c-0.43,0-0.86,0.29-0.86,0.84c0,0.61,0.39,1.01,0.99,1.01c0.77,0,1.17-0.52,1.17-1.13c0-1.11-1.58-1.96-2.35-2.57
		c1.15-0.88,2.32-1.72,3.5-2.55c0.63,1.04,1.38,1.81,2.66,1.81c1.2,0,1.98-0.81,1.98-2.05C166.66,63.5,165.72,62.41,164.46,62.24"/>
	<path class="st0" d="M20.78,63.61c0.83,0,1.89,0.7,2.73,1.26c-0.43,0.93-1.35,1.69-2.41,1.69c-1.1,0-1.71-0.7-1.71-1.62
		C19.4,64.14,19.96,63.61,20.78,63.61 M21.97,62.24c0.86-0.14,1.81-0.8,2.5-1.23c0.22,0.38,0.48,0.81,0.78,1.23
		c-0.3,0.42-0.57,0.85-0.78,1.23C23.78,63.04,22.83,62.38,21.97,62.24 M25.68,62.24c0.32-0.26,0.71-0.42,1.32-0.42
		c0.42,0,0.93,0.16,1.41,0.42c-0.48,0.26-0.99,0.42-1.41,0.42C26.39,62.66,26,62.51,25.68,62.24 M23.51,59.61
		c-0.84,0.56-1.9,1.26-2.73,1.26s-1.38-0.52-1.38-1.33c0-0.92,0.61-1.62,1.71-1.62C22.17,57.92,23.08,58.67,23.51,59.61 M19.11,64.8
		c0,1.24,0.77,2.05,1.98,2.05c1.28,0,2.03-0.77,2.66-1.81c1.19,0.83,2.35,1.67,3.5,2.55c-0.77,0.61-2.35,1.45-2.35,2.57
		c0,0.61,0.4,1.13,1.17,1.13c0.59,0,0.99-0.4,0.99-1.01c0-0.56-0.43-0.84-0.86-0.84c-0.32,0-0.45-0.05-0.45-0.18
		c0-0.16,0.81-0.93,1.76-1.51c1.15,0.9,2.35,1.9,2.35,2.89c0,0.7-0.99,1.26-1.37,1.42l0.09,0.23c1.1-0.5,2.57-1.22,2.57-2.62
		c0-0.74-0.83-1.89-2.3-2.96l-0.25-0.18c-1.28-1.02-2.62-1.96-3.93-2.91c0.28-0.44,0.51-0.83,0.77-1.13
		c0.71,0.91,1.63,1.69,2.71,1.69c1.23,0,2.34-0.83,2.79-1.93l0,0l0,0c-0.22-0.54-0.6-1.02-1.08-1.36l0,0l0,0
		c-0.49-0.35-1.08-0.57-1.71-0.57c-1.09,0-2,0.78-2.71,1.69c-0.26-0.3-0.49-0.69-0.77-1.13c1.31-0.95,2.66-1.89,3.93-2.91l0.25-0.18
		c1.47-1.08,2.3-2.23,2.3-2.96c0-1.4-1.47-2.12-2.57-2.62l-0.09,0.23c0.38,0.16,1.37,0.72,1.37,1.42c0,0.99-1.2,1.99-2.35,2.89
		c-0.95-0.57-1.76-1.35-1.76-1.51c0-0.13,0.13-0.18,0.45-0.18c0.43,0,0.86-0.29,0.86-0.84c0-0.61-0.4-1.01-0.99-1.01
		c-0.77,0-1.17,0.52-1.17,1.13c0,1.11,1.58,1.96,2.35,2.57c-1.15,0.88-2.32,1.72-3.5,2.55c-0.63-1.04-1.38-1.81-2.66-1.81
		c-1.2,0-1.98,0.81-1.98,2.05c0,1.3,0.94,2.39,2.2,2.56C20.05,62.41,19.11,63.5,19.11,64.8"/>
</g>
<g>
	<path class="st0" d="M269.11,58.35V45.96l6.56,0.02l-6.14,12.47C269.43,58.66,269.11,58.59,269.11,58.35"/>
	<path class="st0" d="M221.22,65.76l-5.13,10.42l5.47,0V65.84C221.56,65.65,221.3,65.59,221.22,65.76"/>
	<path class="st0" d="M244.31,72.39c-0.24-0.38-0.49-0.84-0.76-1.38l-12.24-24.98c-0.08-0.17-0.32-0.17-0.4,0l-0.19,0.38l-0.3,0.61
		l-3.38,6.88c-0.08,0.17-0.08,0.37,0,0.54l0.21,0.42c0.01,0.01,0.01,0.02,0.02,0.03l0.86,1.71l5.17,10.5
		c0.02,0.04,0.04,0.09,0.04,0.14c0,0.17-0.14,0.3-0.3,0.3c0,0,0,0-0.01,0l0,0h-6.1v0.95h6.47c0.41,0.04,0.76,0.3,0.92,0.67h0
		l1.4,2.85c0.17,0.39,0.33,0.73,0.49,1.04l0,0c0,0,0.81,1.84,1.94,2.75l0,0c0.31,0.26,0.71,0.51,1.23,0.69v0
		c0,0,0.07,0.03,0.21,0.07c0.03,0.01,0.07,0.02,0.11,0.03c0.05,0.01,0.1,0.03,0.17,0.04c0.02,0,0.03,0.01,0.05,0.01v0
		c0,0,0,0,0.01,0c0,0,0,0,0,0c0.66,0.14,1.89,0.3,3.46,0.03c0.28-0.04,0.55-0.1,0.8-0.17c0.01,0,0.01,0,0.02,0l0,0
		c0.96-0.27,1.73-0.72,2.28-1.12c0.23-0.16,0.45-0.35,0.67-0.56c0.01-0.01,0.02-0.02,0.03-0.03c0.03-0.03,0.06-0.06,0.09-0.09
		c0.14-0.14,0.22-0.23,0.22-0.23c0.03-0.04,0.05-0.08,0.08-0.12C246.1,74.7,244.92,73.32,244.31,72.39"/>
	<path class="st0" d="M264.52,67.07c-0.01-0.01-0.01-0.02-0.02-0.03l-0.86-1.71l-4.61-9.36l-0.44-0.89l-0.13-0.25l-1.02-2.07
		l-1.4-2.85c-0.17-0.39-0.33-0.73-0.49-1.04l0,0c0,0-0.81-1.84-1.94-2.75l0,0c-0.31-0.26-0.71-0.51-1.23-0.69v0
		c0,0-0.07-0.03-0.21-0.07c-0.03-0.01-0.07-0.02-0.11-0.03c-0.05-0.01-0.1-0.03-0.17-0.04c-0.02,0-0.03-0.01-0.05-0.01v0
		c0,0,0,0-0.01,0c0,0,0,0,0,0c-0.66-0.14-1.89-0.3-3.46-0.03c-0.28,0.04-0.55,0.1-0.8,0.17c-0.01,0-0.01,0-0.02,0l0,0
		c-0.96,0.27-1.73,0.72-2.28,1.12c-0.23,0.16-0.45,0.35-0.67,0.56c-0.01,0.01-0.02,0.02-0.03,0.03c-0.03,0.03-0.06,0.06-0.09,0.09
		c-0.14,0.14-0.22,0.23-0.22,0.23c-0.03,0.04-0.05,0.08-0.08,0.12c1.49-0.33,2.67,1.05,3.27,1.97c0.24,0.38,0.49,0.84,0.76,1.38
		l12.24,24.98c0.08,0.16,0.32,0.17,0.4,0l0.19-0.38l0.3-0.61l3.38-6.88c0.08-0.17,0.08-0.37,0-0.54L264.52,67.07z"/>
	<path class="st0" d="M278.71,65.76l-5.13,10.42l5.47,0V65.84C279.05,65.65,278.79,65.59,278.71,65.76"/>
	<path class="st0" d="M301.8,72.39c-0.24-0.38-0.49-0.84-0.76-1.38L288.8,46.03c-0.08-0.17-0.32-0.17-0.4,0l-0.19,0.38l-0.3,0.61
		l-3.38,6.88c-0.08,0.17-0.08,0.37,0,0.54l0.21,0.42c0.01,0.01,0.01,0.02,0.02,0.03l0.86,1.71l5.17,10.5
		c0.02,0.04,0.04,0.09,0.04,0.14c0,0.17-0.14,0.3-0.3,0.3c0,0,0,0-0.01,0l0,0h-6.1v0.95h6.47c0.41,0.04,0.76,0.3,0.92,0.67h0
		l1.4,2.85c0.17,0.39,0.33,0.73,0.49,1.04l0,0c0,0,0.81,1.84,1.94,2.75l0,0c0.31,0.26,0.71,0.51,1.23,0.69v0
		c0,0,0.07,0.03,0.21,0.07c0.03,0.01,0.07,0.02,0.11,0.03c0.05,0.01,0.1,0.03,0.17,0.04c0.02,0,0.03,0.01,0.05,0.01v0
		c0,0,0,0,0.01,0c0,0,0,0,0,0c0.66,0.14,1.89,0.3,3.46,0.03c0.28-0.04,0.55-0.1,0.8-0.17c0.01,0,0.01,0,0.02,0l0,0
		c0.96-0.27,1.73-0.72,2.28-1.12c0.23-0.16,0.45-0.35,0.67-0.56c0.01-0.01,0.02-0.02,0.03-0.03c0.03-0.03,0.06-0.06,0.09-0.09
		c0.14-0.14,0.22-0.23,0.22-0.23c0.03-0.04,0.05-0.08,0.08-0.12C303.59,74.7,302.4,73.32,301.8,72.39"/>
	<path class="st0" d="M254.24,99.59l0.82-2.28c0.22-0.61,0.65-1.11,1.22-1.4l2.12-1.11l-1.15,3.22L254.24,99.59z M259.77,97.16
		c0.25,0.6,0.27,1.26,0.05,1.87l-0.82,2.28l-1.34-3.16l1.15-3.24L259.77,97.16z M253.45,90.08l-0.73-1.65l2.95-0.33
		c0.08-0.01,0.16,0.03,0.19,0.11l2.48,5.6L253.45,90.08z M253.22,90.44l3.96,3.02l-4.56-1.98l-0.42-0.93L253.22,90.44z
		 M252.03,94.87c-0.08,0.01-0.16-0.03-0.19-0.11l-1.2-2.71l1.8-0.2l5.45,2.36L252.03,94.87z M261.12,91.69l-0.53,1.35l-0.53-1.35
		l0.53-1.35L261.12,91.69z M270.54,92.06l-1.2,2.71c-0.03,0.07-0.11,0.12-0.19,0.11l-5.85-0.65l5.45-2.36L270.54,92.06z
		 M263.99,93.46l3.96-3.03l1.01,0.11l-0.41,0.93L263.99,93.46z M265.32,88.21c0.03-0.07,0.11-0.12,0.19-0.11l2.94,0.33l-0.73,1.65
		l-4.88,3.73L265.32,88.21z M263.91,98.01l-1.15-3.22l2.12,1.11c0.57,0.3,1.01,0.8,1.22,1.4l0.82,2.28L263.91,98.01z M262.17,101.31
		l-0.82-2.28c-0.22-0.61-0.2-1.27,0.05-1.87l0.95-2.24l1.15,3.24L262.17,101.31z M270.98,91.8c-0.05-0.08-0.13-0.13-0.22-0.14
		l-1.75-0.19l0.4-0.91c0.04-0.08,0.03-0.18-0.01-0.26c-0.05-0.08-0.13-0.13-0.22-0.14l-0.99-0.11l0.71-1.61
		c0.04-0.08,0.03-0.18-0.01-0.26c-0.05-0.08-0.13-0.13-0.22-0.14l-3.13-0.35c-0.26-0.03-0.51,0.11-0.62,0.36l-2.55,5.74l-0.82-2.09
		l1.01-2.59c0.02-0.05,0.02-0.11,0-0.16c-0.02-0.05-0.06-0.09-0.12-0.11c-0.05-0.02-0.11-0.02-0.16,0
		c-0.05,0.02-0.09,0.06-0.11,0.12l-0.85,2.17l-0.56-1.42c-0.03-0.08-0.11-0.13-0.2-0.13c-0.09,0-0.17,0.05-0.2,0.13l-0.56,1.42
		l-0.85-2.17c-0.04-0.11-0.16-0.16-0.27-0.12c-0.05,0.02-0.09,0.06-0.12,0.11c-0.02,0.05-0.02,0.11,0,0.16l1.01,2.59l-0.82,2.11
		l-2.55-5.76c-0.11-0.24-0.36-0.39-0.62-0.36l-3.13,0.35c-0.09,0.01-0.17,0.06-0.22,0.14c-0.03,0.05-0.04,0.11-0.04,0.16l0,0l0,0
		c0,0.03,0.01,0.06,0.02,0.09l0.71,1.61l-0.99,0.11c-0.09,0.01-0.17,0.06-0.22,0.14c-0.05,0.08-0.05,0.18-0.01,0.26l0.4,0.91
		l-1.75,0.19c-0.09,0.01-0.17,0.06-0.22,0.14c-0.05,0.08-0.05,0.18-0.01,0.26l1.28,2.88c0.11,0.24,0.36,0.39,0.62,0.36l5.67-0.63
		l-1.65,0.86c-0.67,0.35-1.17,0.93-1.43,1.63l-0.83,2.3c-0.06,0.16-0.01,0.34,0.12,0.45c0.13,0.11,0.31,0.14,0.46,0.06l2.91-1.52
		l1.29,3.04c0.07,0.16,0.22,0.25,0.39,0.25c0.17,0,0.32-0.11,0.38-0.27l0.82-2.3c0.25-0.71,0.23-1.48-0.06-2.18l-1.05-2.48l0.01,0
		l-0.08-0.17l0.81-2.07l0.56,1.42c0.03,0.08,0.11,0.13,0.2,0.13c0.09,0,0.16-0.05,0.2-0.13l0.56-1.42l0.8,2.06l-1.13,2.67
		c-0.29,0.69-0.32,1.47-0.06,2.18l0.82,2.3c0.06,0.16,0.21,0.27,0.39,0.27h0c0.17,0,0.32-0.1,0.38-0.25l1.29-3.04l2.91,1.52
		c0.15,0.08,0.33,0.06,0.46-0.06c0.13-0.11,0.18-0.29,0.12-0.45l-0.83-2.3c-0.25-0.71-0.76-1.29-1.43-1.63l-1.65-0.86l5.67,0.63
		c0.26,0.03,0.51-0.12,0.62-0.36l1.28-2.88C271.03,91.98,271.03,91.88,270.98,91.8"/>
</g>
<g>
	<g>
		<path class="st0" d="M361.97,45.15h2.22l9.56,21.12h-2.55l-2.46-5.54h-11.41l-2.49,5.54h-2.43L361.97,45.15z M367.81,58.61
			l-4.76-10.7l-4.79,10.7H367.81z"/>
		<path class="st0" d="M385.78,57.5V45.3h2.37v12.05c0,4.52,2.4,7.07,6.41,7.07c3.86,0,6.32-2.34,6.32-6.92V45.3h2.37v12.02
			c0,6.11-3.5,9.29-8.75,9.29C389.32,66.61,385.78,63.43,385.78,57.5z"/>
		<path class="st0" d="M417.84,45.3h9.02c2.58,0,4.64,0.78,5.96,2.1c1.02,1.02,1.62,2.49,1.62,4.14v0.06c0,3.47-2.4,5.51-5.69,6.11
			l6.44,8.57h-2.9l-6.08-8.15h-5.99v8.15h-2.37V45.3z M426.65,56c3.15,0,5.39-1.62,5.39-4.32v-0.06c0-2.58-1.98-4.13-5.36-4.13
			h-6.47V56H426.65z"/>
		<path class="st0" d="M456.25,45.15h2.22l9.56,21.12h-2.55l-2.46-5.54h-11.41l-2.49,5.54h-2.43L456.25,45.15z M462.09,58.61
			l-4.76-10.7l-4.79,10.7H462.09z"/>
	</g>
	<path class="st0" d="M416,87.38c-2.25,0-3.86,1.66-5.44,3.53c-1.58-1.87-3.19-3.53-5.44-3.53c-2.39,0-4.34,1.95-4.34,4.34
		c0,2.39,1.95,4.34,4.34,4.34c2.22,0,3.85-1.67,5.44-3.56c1.59,1.89,3.22,3.56,5.44,3.56c2.39,0,4.34-1.95,4.34-4.34
		C420.34,89.33,418.39,87.38,416,87.38z M419.31,91.72c0,1.83-1.49,3.32-3.32,3.32c-1.81,0-3.18-1.44-4.77-3.33
		c1.52-1.81,2.94-3.3,4.77-3.3C417.83,88.41,419.31,89.89,419.31,91.72z M409.89,91.7c-1.59,1.89-2.96,3.33-4.77,3.33
		c-1.83,0-3.32-1.49-3.32-3.32c0-1.83,1.49-3.32,3.32-3.32C406.95,88.41,408.37,89.89,409.89,91.7z"/>
</g>
<g>
	<g>
		<path class="st0" d="M533.62,54.98v-0.4c-0.05-0.7-0.22-1.36-0.51-1.98c-0.29-0.62-0.68-1.15-1.16-1.6
			c-0.48-0.45-1.04-0.8-1.67-1.07c-0.63-0.27-1.3-0.4-2-0.4s-1.36,0.13-1.98,0.38c-0.62,0.25-1.16,0.6-1.63,1.03
			c-0.47,0.44-0.86,0.95-1.16,1.54c-0.3,0.59-0.49,1.23-0.56,1.91h0.07c-0.05,0.15-0.07,0.29-0.07,0.44c0,0.15,0,0.29,0,0.44
			c0,1.21,0.34,2.26,1.02,3.16c0.12,0.19,0.29,0.39,0.51,0.6c0.22,0.21,0.42,0.37,0.62,0.49l0.44,0.29
			c0.12,0.07,0.24,0.15,0.35,0.22c0.11,0.07,0.19,0.12,0.24,0.15l6.25,3.31c0.39,0.19,0.7,0.39,0.93,0.58
			c0.23,0.19,0.37,0.31,0.42,0.36c0.05,0.05,0.08,0.08,0.09,0.11c0.01,0.02,0.04,0.06,0.09,0.11c0.44,0.58,0.77,1.23,1.02,1.94
			c0.24,0.71,0.36,1.46,0.36,2.23v0.04v0.04v0.36v0.07c0,0.05-0.01,0.1-0.02,0.16c-0.01,0.06-0.02,0.12-0.02,0.16v0.04
			c-0.12,0.87-0.38,1.68-0.78,2.42c-0.4,0.74-0.91,1.39-1.53,1.94c-0.62,0.56-1.32,0.99-2.11,1.31c-0.79,0.31-1.63,0.47-2.52,0.47
			c-0.94,0-1.83-0.17-2.65-0.51c-0.82-0.34-1.55-0.81-2.18-1.42c-0.63-0.61-1.13-1.31-1.51-2.13c-0.38-0.81-0.59-1.68-0.64-2.6V65.3
			l1.63,3.6v0.25c0.05,0.7,0.22,1.36,0.51,1.98c0.29,0.62,0.68,1.15,1.16,1.6c0.48,0.45,1.04,0.81,1.67,1.07
			c0.63,0.27,1.3,0.4,2,0.4c0.65,0,1.28-0.11,1.87-0.35c0.59-0.23,1.13-0.54,1.6-0.94c0.47-0.4,0.87-0.88,1.18-1.43
			c0.31-0.56,0.52-1.15,0.62-1.78c0.02-0.05,0.04-0.11,0.04-0.18c0-0.07,0.01-0.13,0.04-0.18v-0.07v-0.4v-0.04
			c0-0.87-0.18-1.67-0.55-2.4L533,66.35c-0.02-0.1-0.07-0.19-0.15-0.29c-0.17-0.19-0.38-0.39-0.62-0.6
			c-0.24-0.21-0.48-0.38-0.73-0.53c-0.27-0.17-0.56-0.34-0.87-0.51c-0.85-0.48-1.67-0.94-2.47-1.38c-0.68-0.36-1.36-0.73-2.03-1.11
			c-0.68-0.38-1.22-0.68-1.63-0.93c-0.34-0.17-0.62-0.34-0.84-0.51c-0.22-0.17-0.4-0.34-0.55-0.51c-0.17-0.17-0.31-0.35-0.44-0.54
			c-0.44-0.58-0.78-1.23-1.02-1.94c-0.24-0.71-0.36-1.46-0.36-2.23v-0.36c0-0.97,0.18-1.88,0.55-2.72c0.36-0.85,0.86-1.59,1.49-2.22
			c0.63-0.63,1.37-1.13,2.22-1.51c0.85-0.38,1.76-0.56,2.72-0.56c0.94,0,1.83,0.18,2.65,0.53c0.82,0.35,1.55,0.82,2.18,1.42
			c0.63,0.59,1.13,1.3,1.51,2.11c0.38,0.81,0.59,1.68,0.64,2.6v3.89L533.62,54.98z"/>
		<path class="st0" d="M550.04,65.37v3.38c0,0.97-0.19,1.88-0.56,2.72c-0.38,0.85-0.88,1.59-1.51,2.22
			c-0.63,0.63-1.37,1.13-2.22,1.49c-0.85,0.36-1.76,0.55-2.72,0.55c-0.94,0-1.83-0.18-2.67-0.53c-0.84-0.35-1.56-0.83-2.18-1.43
			c-0.62-0.61-1.12-1.31-1.51-2.13c-0.39-0.81-0.59-1.68-0.62-2.6l-0.07-14.24v-0.18h0.04c0.02-0.94,0.22-1.83,0.58-2.65
			c0.36-0.82,0.86-1.54,1.49-2.16c0.63-0.62,1.37-1.1,2.22-1.45c0.85-0.35,1.74-0.53,2.69-0.53c0.97,0,1.88,0.18,2.72,0.55
			c0.85,0.36,1.59,0.86,2.22,1.49c0.63,0.63,1.13,1.37,1.49,2.22c0.36,0.85,0.54,1.76,0.54,2.72v3.56l-1.63-3.56
			c0-0.53-0.08-1.04-0.24-1.53c-0.16-0.48-0.37-0.93-0.64-1.34c-0.48-0.75-1.11-1.35-1.89-1.8c-0.78-0.45-1.63-0.67-2.58-0.67
			c-0.73,0-1.41,0.13-2.05,0.4c-0.64,0.27-1.2,0.64-1.69,1.11c-0.48,0.47-0.87,1.02-1.14,1.65c-0.28,0.63-0.43,1.3-0.45,2
			l0.04,14.42c0.02,0.7,0.19,1.36,0.49,1.98c0.3,0.62,0.7,1.15,1.18,1.6c0.48,0.45,1.04,0.81,1.67,1.07c0.63,0.27,1.3,0.4,2,0.4
			c0.94,0,1.81-0.22,2.6-0.67c0.79-0.45,1.42-1.05,1.91-1.8c0.56-0.82,0.84-1.78,0.84-2.87L550.04,65.37z"/>
		<path class="st0" d="M564.39,75.76l-2.55-3.25l-1.91-8.81l-4.03,1.71h-1.31l-1.56,7.05l-2.51,3.27l6.14-27.68h1.56L564.39,75.76z
			 M554.94,63.7h4.98l-2.47-11.12L554.94,63.7z"/>
		<path class="st0" d="M579.57,75.73l-3.98-3.22l-7.35-11.64l-0.44-0.65h4.76c0.73,0,1.42-0.14,2.07-0.42
			c0.65-0.28,1.22-0.66,1.71-1.14c0.48-0.48,0.87-1.05,1.14-1.71c0.28-0.65,0.42-1.36,0.42-2.11c0-0.73-0.14-1.42-0.42-2.07
			c-0.28-0.65-0.66-1.22-1.14-1.71c-0.48-0.48-1.05-0.87-1.71-1.14c-0.65-0.28-1.36-0.42-2.11-0.42h-5.34v8.94v1.78v1.63v3.71v6.72
			l-1.6,3.45V47.86h0.69h0.91h5.34c0.97,0,1.88,0.18,2.72,0.54c0.85,0.36,1.59,0.86,2.23,1.49c0.64,0.63,1.14,1.37,1.51,2.22
			c0.36,0.85,0.54,1.76,0.54,2.72c0,0.97-0.18,1.88-0.54,2.72c-0.36,0.85-0.86,1.59-1.49,2.22c-0.63,0.63-1.36,1.13-2.2,1.51
			c-0.84,0.38-1.74,0.56-2.71,0.56h-1.85L579.57,75.73z"/>
		<path class="st0" d="M587.74,47.75c0.94,0.02,1.83,0.22,2.67,0.6c0.84,0.38,1.56,0.88,2.18,1.51c0.62,0.63,1.11,1.37,1.47,2.22
			c0.36,0.85,0.55,1.74,0.55,2.69c0,0.97-0.18,1.88-0.55,2.72c-0.36,0.85-0.86,1.59-1.49,2.22c-0.63,0.63-1.37,1.13-2.22,1.49
			c-0.85,0.36-1.76,0.55-2.72,0.55h-5.05l3.31-1.63h1.74c0.73,0,1.42-0.14,2.07-0.42c0.65-0.28,1.22-0.66,1.71-1.14
			c0.48-0.48,0.87-1.05,1.14-1.71c0.28-0.65,0.42-1.34,0.42-2.07c0-0.73-0.14-1.42-0.42-2.07c-0.28-0.65-0.66-1.22-1.14-1.71
			c-0.48-0.48-1.05-0.87-1.71-1.16c-0.65-0.29-1.34-0.44-2.07-0.44h-5.34v22.78l-1.6,3.52V47.75H587.74z"/>
		<path class="st0" d="M605.83,73.95l3.38,1.78h-11.99h-1.63h-0.15V47.86h0.25h1.53h12.13l-3.52,1.74h-8.61v11.3h3.59v1.74h-3.59
			v11.3H605.83z"/>
	</g>
</g>
<g>
	<path d="M784.57,52.01c0.58,0.16,1.17,0.3,1.74,0.5c3.18,1.11,4.9,3.47,5.43,6.69c0.43,2.6,0.3,5.19-0.94,7.6
		c-1.29,2.51-3.45,3.79-6.2,4.18c-2.4,0.34-4.67,0-6.73-1.31c-2.07-1.32-3.09-3.35-3.49-5.68c-0.37-2.18-0.34-4.38,0.44-6.49
		c1.12-3.03,3.3-4.82,6.51-5.34c0.08-0.01,0.14-0.09,0.21-0.14C782.56,52.01,783.57,52.01,784.57,52.01z M788.79,61.72
		c0.02-2.35-0.24-4.48-1.47-6.38c-1.31-2.03-3.58-2.9-5.79-2.17c-1.76,0.59-2.85,1.91-3.44,3.6c-1.12,3.21-1.08,6.45,0.01,9.66
		c0.41,1.2,1.15,2.2,2.24,2.9c2.7,1.75,6.12,0.59,7.53-2.55C788.62,65.13,788.83,63.37,788.79,61.72z"/>
	<path d="M645.08,70.53c0.53-1.1,1.08-2.2,1.59-3.31c2.14-4.75,4.27-9.5,6.41-14.25c0.08-0.17,0.17-0.34,0.31-0.62
		c2.84,6.16,5.62,12.22,8.48,18.42c-1.06,0-2,0.02-2.94-0.02c-0.15-0.01-0.33-0.25-0.41-0.42c-0.39-0.81-0.78-1.63-1.12-2.47
		c-0.16-0.39-0.36-0.54-0.79-0.54c-2.69,0.02-5.37,0.02-8.06,0c-0.43,0-0.65,0.13-0.8,0.53c-0.26,0.66-0.57,1.31-0.87,1.96
		c-0.52,1.13-0.52,1.13-1.79,0.87C645.08,70.62,645.08,70.58,645.08,70.53z M656.6,66.2c-1.37-2.98-2.72-5.91-4.1-8.92
		c-1.35,3.01-2.67,5.94-4,8.92C651.26,66.2,653.89,66.2,656.6,66.2z"/>
	<path d="M703.73,58.59c-2.19,4.03-4.38,8.06-6.65,12.22c-2.06-3.87-4.07-7.64-6.18-11.6c-0.46,3.95-0.9,7.71-1.34,11.51
		c-0.4,0-0.75,0-1.21,0c0.14-1.3,0.27-2.59,0.41-3.88c0.21-1.89,0.44-3.78,0.65-5.67c0.14-1.23,0.35-2.46,0.34-3.69
		c-0.01-1.04-0.16-2.14-0.51-3.11c-0.22-0.61-0.95-1.04-1.45-1.55c0.26,0.03,0.66,0.04,1.03,0.13c1.4,0.34,2.47,1.18,3.17,2.41
		c1.24,2.17,2.39,4.39,3.57,6.59c0.78,1.47,1.55,2.94,2.38,4.52c2.58-4.73,5.11-9.36,7.75-14.19c1.08,6.26,2.13,12.31,3.19,18.43
		c-0.98,0-1.88,0-2.89,0c-0.7-4.01-1.41-8.06-2.12-12.1C703.83,58.61,703.78,58.6,703.73,58.59z"/>
	<path d="M766.02,52.47c0.49,0,0.85,0,1.24,0c0,6.06,0,12.1,0,18.32c-4.44-4.35-8.77-8.58-13.21-12.93
		c-0.02,0.39-0.04,0.63-0.04,0.88c0,3.68,0,7.37,0,11.05c0,1.08-0.02,1.1-1.25,0.89c0-0.24,0-0.49,0-0.75
		c0-4.52,0.01-9.04-0.01-13.56c0-0.52-0.06-1.05-0.18-1.55c-0.26-1.05-0.86-1.85-1.96-2.19c0.01-0.06,0.03-0.12,0.04-0.18
		c0.35,0.02,0.7,0,1.04,0.08c1.16,0.25,2.09,0.92,2.92,1.73c3.7,3.58,7.39,7.17,11.09,10.75c0.07,0.06,0.14,0.12,0.32,0.26
		C766.02,60.95,766.02,56.74,766.02,52.47z"/>
	<path d="M732.51,70.77c-1.04,0-1.93,0.03-2.8-0.02c-0.21-0.01-0.47-0.29-0.58-0.5c-0.41-0.81-0.74-1.65-1.16-2.45
		c-0.11-0.21-0.44-0.44-0.67-0.44c-2.73-0.03-5.47-0.03-8.2,0c-0.23,0-0.55,0.24-0.67,0.46c-0.36,0.67-0.64,1.38-0.95,2.07
		c-0.45,1.02-0.47,1.03-1.71,0.78c2.73-6.07,5.45-12.13,8.24-18.35C726.87,58.52,729.66,64.57,732.51,70.77z M723.14,57.28
		c-1.37,3.05-2.67,5.95-4,8.92c2.76,0,5.38,0,8.1,0C725.87,63.23,724.54,60.33,723.14,57.28z"/>
	<path d="M823.68,52.31c2.85,6.19,5.64,12.24,8.49,18.45c-1.07,0-2.04,0.02-3-0.02c-0.13-0.01-0.29-0.28-0.38-0.46
		c-0.4-0.84-0.76-1.7-1.18-2.52c-0.1-0.2-0.41-0.41-0.62-0.41c-2.76-0.03-5.51-0.03-8.27,0c-0.21,0-0.5,0.23-0.6,0.43
		c-0.37,0.69-0.68,1.42-1,2.13c-0.45,0.99-0.45,0.99-1.67,0.74C818.17,64.57,820.89,58.51,823.68,52.31z M826.91,66.2
		c-1.37-2.98-2.72-5.9-4.11-8.92c-1.36,3.03-2.67,5.94-4,8.92C821.52,66.2,824.15,66.2,826.91,66.2z"/>
	<path d="M806.09,66.36c1.63-3.7,3.22-7.33,4.82-10.96c0.29-0.65,0.58-1.3,0.86-1.96c0.46-1.07,0.45-1.07,1.77-0.96
		c-2.72,6.2-5.43,12.38-8.21,18.71c-0.38-0.85-0.71-1.57-1.02-2.3c-2.08-4.8-4.17-9.6-6.22-14.41c-0.43-1.01-1.07-1.71-2.18-1.99
		c1.05,0,2.12-0.1,3.15,0.03c0.78,0.1,1.31,0.74,1.63,1.48c1.68,3.88,3.37,7.76,5.05,11.64C805.84,65.87,805.95,66.08,806.09,66.36z
		"/>
	<path d="M671.53,52.52c0,5.66,0,11.29,0,17c3.1,0,6.13,0,9.15,0c0.23,1.24,0.22,1.25-0.92,1.25c-3.36,0-6.71-0.02-10.07,0.01
		c-0.62,0.01-0.82-0.15-0.82-0.79c0.03-4.69,0.01-9.38,0.01-14.06c0-2.16-0.17-2.43-2.25-3.41
		C668.33,52.52,669.87,52.52,671.53,52.52z"/>
	<path d="M776.22,90.63c0.59,0.09,1.05,0.16,1.54,0.24c-0.29,0.59-0.76,0.81-1.38,0.54c-0.89-0.39-1.79-0.76-2.62-1.24
		c-1-0.59-1.37-1.91-0.95-3.02c0.4-1.07,1.67-1.79,2.84-1.62c1.15,0.17,2.1,0.94,2.29,1.87c0.27,1.32-0.19,2.3-1.41,2.98
		C776.47,90.4,776.42,90.46,776.22,90.63z M777.14,88.06c-0.01-1.06-0.73-1.75-1.83-1.75c-1.05,0-1.83,0.77-1.83,1.78
		c0.01,0.99,0.86,1.87,1.85,1.79C776.45,89.8,777.19,89.06,777.14,88.06z"/>
	<path d="M741.39,88.06c0-1.5,1.11-2.57,2.65-2.56c1.53,0.01,2.67,1.11,2.67,2.57c0,1.48-1.17,2.55-2.76,2.54
		C742.45,90.61,741.39,89.55,741.39,88.06z M744.1,86.31c-1.11-0.02-1.82,0.65-1.88,1.7c-0.05,0.98,0.62,1.8,1.82,1.87
		c0.97,0.05,1.79-0.79,1.81-1.75C745.88,87.1,745.14,86.33,744.1,86.31z"/>
	<path d="M704.57,90.6c0-1.72,0-3.31,0-4.95c0.87,0,1.73-0.1,2.56,0.02c1.24,0.19,2.06,1.3,2,2.49c-0.06,1.23-0.97,2.18-2.27,2.32
		C706.11,90.56,705.36,90.56,704.57,90.6z M705.38,89.77c1.02,0,2.02,0.23,2.64-0.8c0.38-0.63,0.36-1.4-0.07-1.94
		c-0.68-0.85-1.61-0.76-2.57-0.66C705.38,87.5,705.38,88.59,705.38,89.77z"/>
	<path d="M683.67,85.61c0.58,0,1.05,0.01,1.52,0c0.59-0.01,1.12,0.15,1.37,0.71c0.25,0.55,0.22,1.11-0.35,1.55
		c0.21,0.16,0.45,0.25,0.52,0.41c0.16,0.4,0.42,0.89,0.31,1.23c-0.12,0.38-0.57,0.83-0.96,0.92c-0.75,0.18-1.55,0.13-2.42,0.18
		c0-0.93,0-1.73,0-2.54C683.67,87.29,683.67,86.51,683.67,85.61z M684.55,89.99c0.64-0.22,1.16-0.36,1.65-0.59
		c0.08-0.04,0.05-0.6-0.03-0.63c-0.5-0.2-1.03-0.3-1.62-0.46C684.55,88.92,684.55,89.32,684.55,89.99z M684.56,87.79
		c0.47-0.18,0.88-0.28,1.19-0.5c0.11-0.08,0.09-0.63-0.03-0.69c-0.34-0.19-0.75-0.24-1.17-0.35
		C684.56,86.82,684.56,87.21,684.56,87.79z"/>
	<path d="M734.05,85.61c0.5,0,0.91,0.01,1.31,0c0.64-0.02,1.21,0.1,1.52,0.72c0.29,0.58,0.13,1.1-0.3,1.5
		c0.27,0.32,0.59,0.56,0.74,0.88c0.34,0.7-0.08,1.57-0.88,1.73c-0.76,0.15-1.55,0.12-2.35,0.18c-0.02-0.27-0.05-0.41-0.05-0.55
		C734.05,88.61,734.05,87.16,734.05,85.61z M734.8,89.77c0.44,0,0.82,0.08,1.14-0.03c0.27-0.09,0.46-0.4,0.68-0.62
		c-0.22-0.22-0.4-0.55-0.66-0.63c-0.36-0.11-0.77-0.03-1.17-0.03C734.8,88.94,734.8,89.34,734.8,89.77z M734.8,87.62
		c1,0.04,1.41-0.17,1.4-0.66c-0.01-0.49-0.46-0.68-1.4-0.57C734.8,86.77,734.8,87.17,734.8,87.62z"/>
	<path d="M691.29,85.61c0.48,0,0.86,0.01,1.24,0c0.7-0.03,1.31,0.15,1.6,0.83c0.29,0.69,0.07,1.3-0.52,1.76
		c0.51,0.76,1.01,1.5,1.55,2.29c-0.58,0.22-0.95,0.1-1.24-0.4c-0.28-0.47-0.61-0.91-0.97-1.32c-0.16-0.18-0.45-0.24-0.79-0.41
		c0,0.81,0,1.45,0,2.16c-0.29,0-0.53,0-0.86,0c0-0.83,0-1.64,0-2.44C691.29,87.28,691.29,86.49,691.29,85.61z M692.2,86.36
		c0,0.46,0,0.92,0,1.4c0.59-0.06,1.23-0.12,1.2-0.79C693.37,86.32,692.79,86.23,692.2,86.36z"/>
	<path d="M754.39,85.64c0.29-0.01,0.5-0.02,0.79-0.04c0,1.21,0.09,2.41-0.03,3.58c-0.1,0.98-1.12,1.52-2.32,1.44
		c-1.08-0.07-1.83-0.73-1.91-1.77c-0.06-0.83-0.02-1.67-0.02-2.51c0-0.21,0.02-0.42,0.03-0.69c0.25-0.02,0.48-0.03,0.82-0.06
		c0,1.02,0.01,1.99,0,2.96c-0.01,0.51,0.11,0.95,0.61,1.18c0.57,0.27,1.16,0.28,1.61-0.15c0.25-0.24,0.38-0.7,0.4-1.07
		C754.42,87.57,754.39,86.62,754.39,85.64z"/>
	<path d="M717.38,90.47c-0.56,0.23-0.85,0.09-1.04-0.42c-0.12-0.32-0.3-0.79-0.53-0.84c-0.57-0.12-1.2-0.12-1.77,0
		c-0.23,0.05-0.4,0.55-0.5,0.87c-0.17,0.53-0.48,0.57-1,0.36c0.66-1.55,1.29-3.07,1.96-4.58c0.17-0.38,0.65-0.38,0.82,0
		C716.01,87.39,716.69,88.92,717.38,90.47z M715.55,88.34c-0.22-0.5-0.41-0.92-0.67-1.48c-0.24,0.6-0.4,1.02-0.58,1.48
		C714.75,88.34,715.1,88.34,715.55,88.34z"/>
	<path d="M790.98,85.63c0.95,0,1.83,0,2.76,0c0,0.22,0,0.42,0,0.69c-0.64,0-1.28,0-1.94,0c0,0.47,0,0.86,0,1.34
		c0.53,0,1.03-0.03,1.52,0.02c0.16,0.02,0.31,0.24,0.46,0.37c-0.15,0.13-0.3,0.35-0.47,0.36c-0.47,0.05-0.96,0.02-1.49,0.02
		c0,0.45,0,0.86,0,1.34c0.67,0,1.33,0,2.02,0c0.14,0.52,0.13,0.84-0.5,0.82c-0.78-0.02-1.57-0.01-2.36-0.01
		C790.98,88.86,790.98,87.25,790.98,85.63z"/>
	<path d="M782.27,85.63c0.26,0,0.45,0,0.72,0c0,0.94-0.03,1.86,0.01,2.78c0.04,1.21,0.91,1.79,1.97,1.36
		c0.57-0.23,0.75-0.68,0.76-1.25c0.01-0.93,0.02-1.86,0.03-2.79c0-0.02,0.02-0.04,0.06-0.09c0.21,0,0.43,0,0.63,0
		c0,1.22,0.08,2.42-0.02,3.59c-0.08,0.92-1.17,1.49-2.35,1.38c-1.08-0.1-1.78-0.79-1.79-1.76
		C782.27,87.81,782.27,86.76,782.27,85.63z"/>
	<path d="M761.71,90.5c-0.72,0.22-0.87-0.05-0.85-0.61c0.03-1.16,0.01-2.33,0.01-3.54c-0.55,0-1.02,0-1.56,0
		c-0.03-0.24-0.06-0.44-0.09-0.69c1.4,0,2.75,0,4.15,0c0,0.2,0,0.4,0,0.65c-0.54,0-1.06,0-1.65,0
		C761.71,87.73,761.71,89.1,761.71,90.5z"/>
	<path d="M721.41,90.58c0-1.73,0-3.32,0-4.94c0.26,0,0.48,0,0.76,0c0,1.37,0,2.7,0,4.1c0.74,0,1.42,0,2.11,0
		c0.21,0.6,0.09,0.86-0.53,0.84C723,90.56,722.24,90.58,721.41,90.58z"/>
	<path d="M768.26,90.52c-0.57,0.14-0.79-0.04-0.78-0.63c0.03-1.4,0.01-2.81,0.01-4.24c0.3-0.02,0.51-0.04,0.77-0.05
		C768.26,87.26,768.26,88.89,768.26,90.52z"/>
	<path d="M699.88,90.57c-0.23-0.02-0.41-0.03-0.63-0.05c0-1.62,0-3.21,0-4.86c0.19-0.02,0.38-0.04,0.63-0.07
		C699.88,87.25,699.88,88.86,699.88,90.57z"/>
</g>
</svg>
